<?xml version="1.0" encoding="UTF-8" standalone="no"?>
<!-- Created with Inkscape (http://www.inkscape.org/) -->

<svg
   width="106.76453mm"
   height="20.366116mm"
   viewBox="0 0 106.76453 20.366116"
   version="1.1"
   id="svg1870"
   xmlns="http://www.w3.org/2000/svg"
   xmlns:svg="http://www.w3.org/2000/svg">
  <defs
     id="defs1867" />
  <g
     id="layer1"
     transform="translate(-41.22053,-103.26491)">
    <g
       id="g3681">
      <g
         id="g773"
         transform="matrix(0.35277777,0,0,-0.35277777,81.881696,115.46034)">
        <path
           d="m 0,0 c -0.04,-0.32 -0.09,-0.641 -0.15,-0.96 -0.07,-0.41 -0.161,-0.82 -0.25,-1.23 -0.11,-0.491 -0.23,-0.98 -0.38,-1.46 -0.08,-0.29 -0.16,-0.571 -0.25,-0.85 -0.031,-0.09 -0.06,-0.181 -0.09,-0.271 -0.1,-0.29 -0.21,-0.58 -0.32,-0.87 -0.01,-0.04 -0.02,-0.08 -0.04,-0.109 C -1.49,-5.78 -1.5,-5.82 -1.521,-5.851 -1.54,-5.91 -1.561,-5.96 -1.59,-6.021 -1.71,-6.34 -1.84,-6.65 -1.98,-6.96 c -0.121,-0.28 -0.25,-0.561 -0.39,-0.83 -0.191,-0.391 -0.39,-0.78 -0.6,-1.15 -0.15,-0.27 -0.301,-0.54 -0.47,-0.81 -0.57,-0.94 -1.2,-1.851 -1.9,-2.73 -0.25,-0.31 -0.5,-0.621 -0.77,-0.93 -0.32,-0.38 -0.661,-0.75 -1.01,-1.111 -0.36,-0.379 -0.74,-0.75 -1.12,-1.089 -0.8,-0.741 -1.64,-1.411 -2.51,-2 -0.4,-0.281 -0.811,-0.551 -1.23,-0.801 -0.02,-0.02 -0.03,-0.029 -0.05,-0.029 -0.241,-0.151 -0.48,-0.29 -0.72,-0.42 -0.26,-0.151 -0.521,-0.29 -0.79,-0.43 -0.53,-0.271 -1.07,-0.53 -1.62,-0.76 -0.83,-0.361 -1.68,-0.66 -2.56,-0.921 -0.29,-0.09 -0.58,-0.17 -0.881,-0.25 -0.289,-0.079 -0.579,-0.149 -0.869,-0.21 -0.01,-0.009 -0.03,-0.009 -0.051,-0.009 -0.229,-0.061 -0.469,-0.11 -0.709,-0.151 -0.4,-0.09 -0.81,-0.16 -1.22,-0.209 -0.23,-0.041 -0.45,-0.08 -0.68,-0.1 -0.25,-0.04 -0.5,-0.06 -0.75,-0.09 -0.74,-0.08 -1.5,-0.13 -2.27,-0.151 -0.371,-0.009 -0.74,-0.02 -1.121,-0.02 -7.839,0 -14.25,2.57 -19.069,7.64 -4.84,5.081 -7.29,11.391 -7.29,18.75 0,5.661 1.5,10.731 4.46,15.13 0.06,0.091 0.13,0.191 0.19,0.281 0.65,0.95 1.37,1.86 2.16,2.74 0.2,0.229 0.41,0.46 0.62,0.68 0.59,0.61 1.19,1.19 1.83,1.73 2.58,2.21 5.55,3.81 8.88,4.79 2.61,0.76 5.45,1.149 8.5,1.149 7.88,0 14.27,-2.58 19.01,-7.669 C -2.15,17.979 0.3,11.649 0.3,4.229 0.3,2.779 0.2,1.37 0,0 m 4.14,7.069 c 0,7.71 -2.52,14.221 -7.56,19.521 -4.95,5.32 -11.53,7.979 -19.73,7.979 -3.71,0 -7.1,-0.549 -10.17,-1.63 V 32.93 c -0.31,-0.1 -0.62,-0.21 -0.92,-0.33 -0.031,-0.02 -0.05,-0.031 -0.08,-0.031 -0.4,-0.17 -0.8,-0.34 -1.201,-0.519 -6.33,-2.92 -10.889,-8.47 -12.889,-11.26 -0.09,-0.12 -0.18,-0.24 -0.27,-0.37 -0.14,-0.2 -0.28,-0.41 -0.421,-0.62 -0.099,-0.151 -0.189,-0.29 -0.289,-0.441 -0.05,-0.069 -0.09,-0.149 -0.14,-0.229 -0.01,-0.01 -0.01,-0.021 -0.01,-0.03 h -0.01 c -2.721,-4.371 -4.08,-9.321 -4.08,-14.871 0,-7.66 2.52,-14.149 7.56,-19.439 5.04,-5.301 11.64,-7.951 19.799,-7.951 5.25,0 9.871,1.1 13.851,3.32 l -0.01,-0.019 c 0,0 11.05,5.79 14.92,17.06 L 2.47,-2.82 c 1.12,3.04 1.67,6.34 1.67,9.889"
           style="fill:#050301;fill-opacity:1;fill-rule:nonzero;stroke:none"
           id="path775" />
      </g>
      <g
         id="g789"
         transform="matrix(0.35277777,0,0,-0.35277777,122.46183,119.32678)">
        <path
           d="M 0,0 -0.311,-0.181 -18.98,16.6 l -5.39,4.85 -6.971,6.26 v -33.2 h -1.519 v 36.37 l 0.25,0.14 L -1.521,3.1 V 36.01 H 0 Z M -5.66,40.81 V 12.17 l -1.67,1.55 -26.83,24.679 -0.51,0.471 -0.181,0.17 -0.319,0.29 -1.341,1.23 -0.489,0.45 v -51.33 h 9.8 V 18.8 l 1.679,-1.571 1.151,-1.08 0.51,-0.469 0.5,-0.47 27.5,-25.71 v 51.31 z"
           style="fill:#bba22f;fill-opacity:1;fill-rule:nonzero;stroke:none"
           id="path791" />
      </g>
      <path
         d="m 103.71843,121.26349 h -0.60678 v -14.64027 h 0.60678 z m -2.31422,1.70392 h 4.02166 v -18.03753 h -4.02166 z"
         style="fill:#bba22f;fill-opacity:1;fill-rule:nonzero;stroke:none;stroke-width:0.352778"
         id="path793" />
      <path
         d="m 57.790502,108.50712 v 12.75644 h -0.546805 v -11.61344 l -6.76275,6.39939 h -0.123472 l -6.738056,-6.39939 v 11.61344 h -0.546805 v -12.75644 l 0.08819,-0.0494 7.277806,6.88622 7.263694,-6.88622 z"
         style="fill:#050301;fill-opacity:1;fill-rule:nonzero;stroke:none;stroke-width:0.352778"
         id="path797" />
      <g
         id="g799"
         transform="matrix(0.35277777,0,0,-0.35277777,77.588426,119.07976)">
        <path
           d="m 0,0 c -3.7,-3.561 -8.24,-5.341 -13.61,-5.341 -5.39,0 -10.071,1.83 -14.031,5.481 -3.889,3.66 -5.839,8.519 -5.839,14.559 0,6.08 1.93,10.87 5.77,14.391 3.87,3.609 8.5,5.41 13.89,5.41 5.44,0 10.02,-1.83 13.75,-5.48 C 3.68,25.409 5.56,20.539 5.56,14.42 5.56,8.369 3.71,3.569 0,0 m 1.16,30.18 c -4.051,3.979 -9,5.979 -14.841,5.979 -0.42,0 -0.829,-0.01 -1.239,-0.029 -0.21,-0.011 -0.41,-0.021 -0.62,-0.04 -0.18,-0.011 -0.351,-0.03 -0.53,-0.051 -0.27,-0.019 -0.55,-0.05 -0.821,-0.09 -0.339,-0.04 -0.689,-0.099 -1.029,-0.16 -0.04,-0.01 -0.08,-0.01 -0.12,-0.019 -0.3,-0.06 -0.601,-0.121 -0.891,-0.191 -1.369,-0.309 -2.689,-0.76 -3.96,-1.34 -0.259,-0.12 -0.529,-0.25 -0.79,-0.38 -0.299,-0.149 -0.599,-0.309 -0.899,-0.479 -1.101,-0.63 -2.16,-1.36 -3.17,-2.2 -0.03,-0.021 -0.05,-0.05 -0.08,-0.071 -0.33,-0.28 -0.66,-0.559 -0.97,-0.859 -4.27,-3.99 -6.4,-9.171 -6.4,-15.551 0,-6.54 2.11,-11.779 6.33,-15.72 4.269,-3.979 9.309,-5.97 15.12,-5.97 5.96,0 10.95,1.94 14.979,5.831 4.031,3.899 6.051,9.09 6.051,15.58 0,6.569 -2.04,11.819 -6.12,15.76"
           style="fill:#050301;fill-opacity:1;fill-rule:nonzero;stroke:none"
           id="path801" />
      </g>
      <g
         id="g807"
         transform="matrix(0.35277777,0,0,-0.35277777,95.696544,120.67795)">
        <path
           d="m 0,0 v -1.66 h -22.33 v 41.5 h 1.729 V 0 Z"
           style="fill:#050301;fill-opacity:1;fill-rule:nonzero;stroke:none"
           id="path809" />
      </g>
      <g
         id="g815"
         transform="matrix(0.35277777,0,0,-0.35277777,97.379118,122.15623)">
        <path
           d="m 0,0 v -2.3 h -31.93 v 51.13 h 11.39 V 8.96 H 0 V 0.04 h 0.021 z m -16.7,12.79 v 39.88 h -13.4 l -2.83,-2.84 V -3.3 H 1 l 2.84,2.84 v 13.25 z"
           style="fill:#050301;fill-opacity:1;fill-rule:nonzero;stroke:none"
           id="path817" />
      </g>
      <g
         id="g819"
         transform="matrix(0.35277777,0,0,-0.35277777,95.696544,121.2636)">
        <path
           d="m 0,0 h -22.33 v 41.5 h 1.729 V 1.66 H 0 Z M -15.771,6.43 V 46.3 H -27.16 V -4.83 H 4.77 V 6.43 Z"
           style="fill:#bba22f;fill-opacity:1;fill-rule:nonzero;stroke:none"
           id="path821" />
      </g>
      <path
         d="m 103.71843,121.26349 h -0.60678 v -14.64027 h 0.60678 z"
         style="fill:#050301;fill-opacity:1;fill-rule:nonzero;stroke:none;stroke-width:0.352778"
         id="path823" />
      <g
         id="g825"
         transform="matrix(0.35277777,0,0,-0.35277777,122.46183,106.62332)">
        <path
           d="m 0,0 v -36.01 l -0.311,-0.18 -18.669,16.78 -5.39,4.85 -6.971,6.26 v -33.2 h -1.519 v 36.37 l 0.25,0.14 31.089,-27.92 V 0 Z"
           style="fill:#050301;fill-opacity:1;fill-rule:nonzero;stroke:none"
           id="path827" />
      </g>
      <g
         id="g845"
         transform="matrix(0.35277777,0,0,-0.35277777,105.42619,122.55826)">
        <path
           d="M 0,0 V -1.16 H -11.4 V 49.97 H 0 V 0.68 H 0.13 Z M -9.561,53.81 -12.4,50.97 V -2.16 H 1 l 2.84,2.84 v 53.13 z"
           style="fill:#050301;fill-opacity:1;fill-rule:nonzero;stroke:none"
           id="path847" />
      </g>
      <path
         d="m 59.289808,122.96755 h -3.545417 v -9.68375 l -0.596194,0.56092 -3.817408,3.59833 -0.126648,0.11995 -0.772583,0.73025 -3.958167,-3.73239 -0.176388,-0.16581 -0.176389,-0.16933 -0.405695,-0.381 -0.596194,-0.56092 v 9.68375 H 41.573308 V 104.863 l 0.649111,0.6103 0.176389,0.16581 0.176389,0.1658 7.62,7.17903 0.243417,0.22931 0.239888,-0.22931 8.611306,-8.12094 z m 1.118305,-19.70264 -8.971138,8.45961 -8.981722,-8.45961 h -0.232834 l -1.001889,1.00189 v 19.05353 h 4.250973 l 1.001888,-1.00189 v -7.27075 l 3.84175,3.6195 h 0.232834 l 4.843638,-4.56494 v 9.21808 h 4.250973 l 1.001888,-1.00189 v -19.05353 z"
         style="fill:#050301;fill-opacity:1;fill-rule:nonzero;stroke:none;stroke-width:0.352778"
         id="path851" />
      <path
         d="m 57.790502,121.2636 h -0.546805 v -11.61344 l -6.76275,6.39938 h -0.123472 l -6.738056,-6.39938 v 11.61344 h -0.546805 v -12.75644 l 0.08819,-0.0494 7.277806,6.88622 7.263694,-6.88622 0.08819,0.0494 z m -7.112,-8.27969 -0.239888,0.2293 -0.243417,-0.2293 -7.62,-7.17903 -0.176389,-0.16581 -0.176389,-0.1658 -0.649111,-0.61031 v 18.10456 h 3.545417 v -9.68375 l 0.596194,0.56091 0.405695,0.381 0.176389,0.16934 0.176388,0.1658 3.958167,3.73239 0.772583,-0.73025 0.126648,-0.11994 3.817408,-3.59834 0.596194,-0.56091 v 9.68375 h 3.545417 v -18.10456 z"
         style="fill:#bba22f;fill-opacity:1;fill-rule:nonzero;stroke:none;stroke-width:0.352778"
         id="path3552" />
      <g
         id="g857"
         transform="matrix(0.35277777,0,0,-0.35277777,78.022166,119.48902)">
        <path
           d="m 0,0 c -4.029,-3.891 -9.02,-5.831 -14.979,-5.831 -5.811,0 -10.851,1.991 -15.121,5.971 -4.219,3.94 -6.33,9.179 -6.33,15.719 0,6.38 2.13,11.561 6.401,15.551 0.309,0.3 0.639,0.579 0.969,0.86 0.031,0.02 0.05,0.049 0.081,0.07 1.009,0.84 2.069,1.57 3.169,2.2 0.3,0.17 0.6,0.33 0.9,0.48 0.261,0.14 0.53,0.259 0.79,0.379 1.27,0.58 2.591,1.031 3.96,1.34 0.29,0.071 0.591,0.131 0.89,0.191 0.041,0.009 0.081,0.009 0.121,0.019 0.339,0.061 0.689,0.12 1.029,0.16 0.27,0.04 0.551,0.071 0.82,0.09 0.18,0.021 0.351,0.04 0.53,0.051 0.21,0.02 0.411,0.029 0.621,0.04 0.41,0.02 0.819,0.029 1.239,0.029 5.841,0 10.79,-2 14.841,-5.979 4.08,-3.941 6.12,-9.191 6.12,-15.76 C 6.051,9.09 4.03,3.899 0,0 m 3.96,34.479 c -4.739,5.09 -11.13,7.67 -19.01,7.67 -3.05,0 -5.889,-0.389 -8.5,-1.149 -3.33,-0.98 -6.3,-2.58 -8.88,-4.79 -0.639,-0.54 -1.24,-1.12 -1.83,-1.731 -0.21,-0.219 -0.42,-0.45 -0.62,-0.679 -0.79,-0.88 -1.51,-1.79 -2.16,-2.74 -0.06,-0.09 -0.13,-0.19 -0.189,-0.281 -2.96,-4.399 -4.46,-9.469 -4.46,-15.13 0,-7.359 2.45,-13.67 7.29,-18.75 4.819,-5.07 11.229,-7.64 19.069,-7.64 0.381,0 0.75,0.011 1.12,0.02 0.771,0.021 1.53,0.071 2.271,0.151 0.25,0.03 0.5,0.049 0.75,0.09 0.229,0.02 0.45,0.059 0.679,0.1 0.41,0.049 0.821,0.119 1.22,0.209 0.24,0.041 0.48,0.09 0.71,0.15 0.02,0 0.04,0 0.051,0.01 0.29,0.061 0.58,0.131 0.869,0.21 0.301,0.08 0.591,0.16 0.881,0.25 0.88,0.261 1.729,0.56 2.559,0.921 0.55,0.23 1.09,0.489 1.62,0.76 0.27,0.14 0.531,0.279 0.79,0.43 0.241,0.129 0.48,0.269 0.72,0.419 0.021,0 0.03,0.01 0.05,0.03 0.42,0.25 0.83,0.52 1.23,0.801 0.871,0.589 1.71,1.259 2.51,2 0.38,0.339 0.76,0.71 1.12,1.089 0.35,0.361 0.691,0.731 1.01,1.111 0.271,0.309 0.521,0.62 0.771,0.929 0.7,0.88 1.33,1.79 1.899,2.731 C 7.67,1.939 7.82,2.21 7.971,2.479 8.181,2.85 8.38,3.239 8.57,3.63 8.71,3.899 8.84,4.18 8.96,4.46 9.101,4.77 9.23,5.08 9.351,5.399 9.38,5.46 9.4,5.51 9.42,5.569 9.431,5.6 9.44,5.64 9.45,5.67 h 0.01 c 0.02,0.029 0.03,0.069 0.04,0.109 0.11,0.29 0.221,0.58 0.32,0.87 0.031,0.09 0.06,0.181 0.09,0.271 0.09,0.279 0.17,0.559 0.25,0.85 0.151,0.48 0.271,0.969 0.38,1.459 0.09,0.411 0.181,0.821 0.25,1.231 0.061,0.319 0.11,0.64 0.15,0.96 0.201,1.37 0.3,2.779 0.3,4.229 0,7.42 -2.45,13.75 -7.28,18.83"
           style="fill:#bba22f;fill-opacity:1;fill-rule:nonzero;stroke:none"
           id="path859" />
      </g>
      <g
         id="g861"
         transform="matrix(0.35277777,0,0,-0.35277777,77.588426,119.07976)">
        <path
           d="m 0,0 c -3.7,-3.561 -8.24,-5.341 -13.61,-5.341 -5.39,0 -10.071,1.83 -14.031,5.481 -3.889,3.66 -5.839,8.519 -5.839,14.559 0,6.08 1.93,10.87 5.77,14.391 3.87,3.609 8.5,5.41 13.89,5.41 5.44,0 10.02,-1.83 13.75,-5.48 C 3.68,25.409 5.56,20.539 5.56,14.42 5.56,8.369 3.71,3.569 0,0 m 1.16,30.18 c -4.051,3.979 -9,5.979 -14.841,5.979 -0.42,0 -0.829,-0.01 -1.239,-0.029 -0.21,-0.011 -0.41,-0.021 -0.62,-0.04 -0.18,-0.011 -0.351,-0.03 -0.53,-0.051 -0.27,-0.019 -0.55,-0.05 -0.821,-0.09 -0.339,-0.04 -0.689,-0.099 -1.029,-0.16 -0.04,-0.01 -0.08,-0.01 -0.12,-0.019 -0.3,-0.06 -0.601,-0.121 -0.891,-0.191 -1.369,-0.309 -2.689,-0.76 -3.96,-1.34 -0.259,-0.12 -0.529,-0.25 -0.79,-0.38 -0.299,-0.149 -0.599,-0.309 -0.899,-0.479 -1.101,-0.63 -2.16,-1.36 -3.17,-2.2 -0.03,-0.021 -0.05,-0.05 -0.08,-0.071 -0.33,-0.28 -0.66,-0.559 -0.97,-0.859 -4.27,-3.99 -6.4,-9.171 -6.4,-15.551 0,-6.54 2.11,-11.779 6.33,-15.72 4.269,-3.979 9.309,-5.97 15.12,-5.97 5.96,0 10.95,1.94 14.979,5.831 4.031,3.899 6.051,9.09 6.051,15.58 0,6.569 -2.04,11.819 -6.12,15.76"
           style="fill:#050301;fill-opacity:1;fill-rule:nonzero;stroke:none"
           id="path863" />
      </g>
      <g
         id="g865"
         transform="matrix(0.35277777,0,0,-0.35277777,77.299042,116.19761)">
        <path
           d="M 0,0 C -0.229,-0.561 -0.5,-1.11 -0.81,-1.631 -1.1,-2.15 -1.43,-2.65 -1.8,-3.131 -2.14,-3.591 -2.51,-4.03 -2.92,-4.46 -5.64,-7.261 -9.1,-8.67 -13.21,-8.67 c -4.08,0 -7.53,1.409 -10.25,4.199 -2.66,2.821 -4.01,6.42 -4.01,10.721 0,4.59 1.33,8.31 3.93,11.06 0.55,0.57 1.141,1.08 1.76,1.53 0.44,0.33 0.9,0.63 1.381,0.889 0.489,0.281 1,0.521 1.529,0.731 1.71,0.699 3.6,1.04 5.66,1.04 4.13,0 7.59,-1.41 10.28,-4.181 C -0.2,14.52 1.19,10.79 1.19,6.25 1.19,3.979 0.79,1.89 0,0 m 0.75,20.85 c -3.729,3.65 -8.31,5.48 -13.75,5.48 -5.39,0 -10.02,-1.801 -13.89,-5.41 -3.839,-3.521 -5.77,-8.311 -5.77,-14.391 0,-6.04 1.95,-10.899 5.84,-14.559 3.96,-3.651 8.64,-5.481 14.03,-5.481 5.37,0 9.91,1.781 13.61,5.341 3.71,3.569 5.56,8.369 5.56,14.42 0,6.119 -1.88,10.989 -5.63,14.6"
           style="fill:#bba22f;fill-opacity:1;fill-rule:nonzero;stroke:none"
           id="path867" />
      </g>
      <g
         id="g869"
         transform="matrix(0.35277777,0,0,-0.35277777,76.413641,117.04783)">
        <path
           d="m 0,0 c -2.21,-1.62 -4.84,-2.431 -7.86,-2.431 -3.82,0 -7,1.311 -9.53,3.91 -2.49,2.621 -3.73,5.96 -3.73,10.021 0,3.63 0.86,6.649 2.57,9.04 0,0 0,0.01 0.01,0.01 0.08,0.07 0.17,0.13 0.25,0.179 0.269,0.191 0.55,0.351 0.83,0.511 0.28,0.159 0.56,0.3 0.85,0.44 0.39,0.19 0.79,0.349 1.2,0.49 0.41,0.14 0.83,0.26 1.26,0.359 0.44,0.101 0.879,0.181 1.339,0.241 0.681,0.089 1.381,0.14 2.111,0.14 0.73,0 1.429,-0.051 2.11,-0.14 0.45,-0.06 0.89,-0.14 1.319,-0.241 0.431,-0.099 0.851,-0.219 1.261,-0.359 0.409,-0.141 0.81,-0.3 1.199,-0.49 0.29,-0.14 0.571,-0.281 0.851,-0.44 0.28,-0.16 0.56,-0.32 0.82,-0.511 0.539,-0.359 1.05,-0.769 1.53,-1.219 0.16,-0.151 0.32,-0.31 0.48,-0.47 C 1.42,16.41 2.7,12.95 2.7,8.66 2.7,5.319 1.8,2.43 0,0 m -0.42,19.729 c -2.69,2.771 -6.15,4.181 -10.28,4.181 -2.06,0 -3.95,-0.341 -5.66,-1.04 -0.53,-0.21 -1.04,-0.45 -1.53,-0.73 -0.48,-0.26 -0.94,-0.56 -1.381,-0.89 -0.619,-0.45 -1.209,-0.96 -1.759,-1.53 -2.6,-2.75 -3.93,-6.47 -3.93,-11.06 0,-4.301 1.35,-7.9 4.01,-10.721 2.72,-2.79 6.17,-4.199 10.25,-4.199 4.11,0 7.57,1.409 10.29,4.21 0.41,0.43 0.78,0.869 1.12,1.329 0.37,0.481 0.7,0.981 0.99,1.5 C 2.01,1.3 2.28,1.85 2.51,2.41 3.3,4.3 3.7,6.39 3.7,8.66 c 0,4.54 -1.39,8.27 -4.12,11.069"
           style="fill:#050301;fill-opacity:1;fill-rule:nonzero;stroke:none"
           id="path871" />
      </g>
      <g
         id="g873"
         transform="matrix(0.35277777,0,0,-0.35277777,146.00597,117.47847)">
        <path
           d="M 0,0 V -0.01 C -1.069,-2.8 -2.609,-5.359 -4.64,-7.689 -4.96,-8.069 -5.3,-8.439 -5.649,-8.8 -6.01,-9.18 -6.39,-9.55 -6.77,-9.89 c -0.799,-0.74 -1.639,-1.41 -2.509,-2 -0.401,-0.28 -0.811,-0.55 -1.231,-0.8 -4.059,-2.5 -8.83,-3.75 -14.29,-3.75 -7.84,0 -14.25,2.57 -19.07,7.64 -4.84,5.08 -7.289,11.391 -7.289,18.75 0,5.67 1.5,10.75 4.479,15.151 0.05,0.089 0.111,0.17 0.17,0.259 0.651,0.951 1.37,1.861 2.16,2.741 0.201,0.229 0.411,0.46 0.621,0.679 0.589,0.611 1.189,1.191 1.83,1.731 2.58,2.21 5.549,3.8 8.87,4.779 2.62,0.771 5.449,1.16 8.509,1.16 7.88,0 14.27,-2.58 19.01,-7.67 C -0.68,23.7 1.771,17.37 1.771,9.95 1.771,6.381 1.181,3.061 0,0 m -1.949,32.311 c -4.95,5.32 -11.521,7.979 -19.731,7.979 -3.719,0 -7.11,-0.55 -10.179,-1.64 l 0.009,0.021 c -9.969,-3.36 -16.23,-13.83 -16.23,-13.83 h 0.02 c -2.73,-4.37 -4.099,-9.341 -4.099,-14.891 0,-7.66 2.519,-14.149 7.559,-19.439 5.04,-5.301 11.64,-7.951 19.8,-7.951 5.24,0 9.861,1.1 13.84,3.31 0,0 0.04,0.02 0.12,0.07 0.12,0.05 0.24,0.12 0.361,0.2 0.189,0.11 0.379,0.211 0.559,0.34 0.221,0.13 0.471,0.291 0.75,0.47 0.05,0.03 0.09,0.061 0.141,0.09 0.029,0.02 0.059,0.04 0.09,0.07 3.37,2.25 10.059,7.571 12.889,15.821 1.111,3.04 1.66,6.319 1.66,9.859 0,7.71 -2.519,14.221 -7.559,19.521"
           style="fill:#050301;fill-opacity:1;fill-rule:nonzero;stroke:none"
           id="path875" />
      </g>
      <g
         id="g877"
         transform="matrix(0.35277777,0,0,-0.35277777,137.3808,121.5461)">
        <path
           d="m 0,0 c -5.811,0 -10.851,1.991 -15.12,5.971 -4.221,3.94 -6.33,9.179 -6.33,15.719 0,6.38 2.13,11.561 6.399,15.551 0.351,0.329 0.71,0.64 1.071,0.94 1.009,0.84 2.059,1.56 3.15,2.19 3.239,1.85 6.88,2.779 10.899,2.779 5.84,0 10.79,-2 14.84,-5.979 4.08,-3.941 6.12,-9.191 6.12,-15.76 0,-6.49 -2.009,-11.681 -6.05,-15.58 C 10.949,1.94 5.96,0 0,0 M 18.939,40.311 C 14.199,45.4 7.81,47.98 -0.07,47.98 c -3.061,0 -5.89,-0.389 -8.51,-1.16 -3.32,-0.979 -6.29,-2.569 -8.87,-4.779 -0.641,-0.54 -1.24,-1.12 -1.83,-1.73 -0.21,-0.22 -0.42,-0.451 -0.62,-0.68 -0.79,-0.88 -1.51,-1.79 -2.161,-2.74 -0.059,-0.09 -0.12,-0.17 -0.169,-0.26 -2.98,-4.401 -4.48,-9.481 -4.48,-15.151 0,-7.359 2.449,-13.669 7.289,-18.75 4.82,-5.07 11.231,-7.64 19.07,-7.64 5.46,0 10.231,1.25 14.29,3.75 0.42,0.25 0.831,0.52 1.231,0.801 0.87,0.589 1.71,1.259 2.51,2 0.38,0.339 0.759,0.71 1.12,1.089 0.349,0.361 0.689,0.731 1.01,1.111 2.03,2.33 3.57,4.889 4.639,7.68 v 0.009 c 1.181,3.061 1.771,6.381 1.771,9.95 0,7.42 -2.45,13.75 -7.281,18.831"
           style="fill:#bba22f;fill-opacity:1;fill-rule:nonzero;stroke:none"
           id="path879" />
      </g>
      <g
         id="g881"
         transform="matrix(0.35277777,0,0,-0.35277777,142.2315,119.07976)">
        <path
           d="m 0,0 c -3.7,-3.561 -8.24,-5.341 -13.61,-5.341 -5.39,0 -10.071,1.83 -14.031,5.481 -3.889,3.66 -5.839,8.519 -5.839,14.559 0,6.08 1.929,10.87 5.77,14.391 3.869,3.609 8.5,5.41 13.89,5.41 5.439,0 10.019,-1.83 13.75,-5.48 C 3.68,25.409 5.56,20.539 5.56,14.42 5.56,8.369 3.71,3.569 0,0 m 1.159,30.18 c -4.05,3.979 -9,5.979 -14.84,5.979 -4.019,0 -7.66,-0.93 -10.899,-2.779 -1.091,-0.63 -2.141,-1.351 -3.15,-2.191 -0.361,-0.299 -0.72,-0.61 -1.071,-0.939 -4.269,-3.99 -6.399,-9.171 -6.399,-15.551 0,-6.54 2.109,-11.779 6.33,-15.72 4.269,-3.979 9.309,-5.97 15.12,-5.97 5.96,0 10.949,1.94 14.979,5.831 4.041,3.899 6.05,9.09 6.05,15.58 0,6.569 -2.04,11.819 -6.12,15.76"
           style="fill:#050301;fill-opacity:1;fill-rule:nonzero;stroke:none"
           id="path883" />
      </g>
      <g
         id="g885"
         transform="matrix(0.35277777,0,0,-0.35277777,141.94211,116.19761)">
        <path
           d="M 0,0 C -0.23,-0.561 -0.5,-1.11 -0.811,-1.631 -1.101,-2.15 -1.43,-2.65 -1.8,-3.131 -2.14,-3.591 -2.51,-4.03 -2.92,-4.46 c -2.72,-2.801 -6.181,-4.21 -10.29,-4.21 -4.08,0 -7.53,1.409 -10.25,4.199 -2.66,2.821 -4.01,6.42 -4.01,10.721 0,4.59 1.33,8.31 3.93,11.06 0.55,0.57 1.14,1.08 1.76,1.53 0.44,0.33 0.9,0.63 1.38,0.889 0.49,0.281 1,0.521 1.53,0.731 1.71,0.699 3.599,1.04 5.66,1.04 4.13,0 7.59,-1.41 10.28,-4.181 C -0.2,14.52 1.189,10.79 1.189,6.25 1.189,3.979 0.79,1.89 0,0 m 0.75,20.85 c -3.73,3.65 -8.311,5.48 -13.75,5.48 -5.39,0 -10.021,-1.801 -13.89,-5.41 -3.84,-3.521 -5.77,-8.311 -5.77,-14.391 0,-6.04 1.95,-10.899 5.84,-14.559 3.96,-3.651 8.64,-5.481 14.03,-5.481 5.37,0 9.91,1.781 13.61,5.341 3.71,3.569 5.56,8.369 5.56,14.42 0,6.119 -1.88,10.989 -5.63,14.6"
           style="fill:#bba22f;fill-opacity:1;fill-rule:nonzero;stroke:none"
           id="path887" />
      </g>
      <g
         id="g889"
         transform="matrix(0.35277777,0,0,-0.35277777,142.00208,114.25387)">
        <path
           d="m 0,0 c -0.03,-0.73 -0.1,-1.44 -0.22,-2.12 -0.03,-0.2 -0.07,-0.401 -0.12,-0.59 -0.04,-0.2 -0.08,-0.391 -0.14,-0.58 -0.07,-0.29 -0.15,-0.58 -0.25,-0.86 -0.01,-0.05 -0.03,-0.11 -0.06,-0.161 -0.09,-0.29 -0.2,-0.569 -0.32,-0.849 -0.12,-0.29 -0.25,-0.57 -0.39,-0.85 -0.08,-0.16 -0.16,-0.32 -0.25,-0.47 -0.16,-0.3 -0.34,-0.581 -0.53,-0.86 -0.12,-0.19 -0.26,-0.39 -0.4,-0.58 -2.21,-1.62 -4.841,-2.431 -7.86,-2.431 -3.82,0 -7,1.311 -9.53,3.911 -2.49,2.62 -3.73,5.96 -3.73,10.02 0,3.63 0.86,6.649 2.58,9.04 -0.04,-0.02 -0.08,-0.05 -0.12,-0.08 0.04,0.03 0.08,0.06 0.12,0.09 0.26,0.19 0.52,0.36 0.79,0.519 0.159,0.101 0.32,0.191 0.49,0.281 0.03,0.02 0.07,0.04 0.11,0.06 0.18,0.1 0.36,0.19 0.54,0.27 0.269,0.13 0.55,0.25 0.83,0.349 0.01,0.011 0.02,0.011 0.02,0.011 0.169,0.069 0.36,0.13 0.54,0.18 0.379,0.139 0.78,0.25 1.18,0.33 0.14,0.04 0.27,0.07 0.41,0.08 0.039,0.019 0.08,0.03 0.12,0.019 0.169,0.051 0.33,0.071 0.5,0.091 0.37,0.06 0.75,0.1 1.13,0.119 0.05,0.011 0.09,0.021 0.14,0.011 0.08,0.01 0.149,0.02 0.23,0.01 0.27,0.019 0.54,0.03 0.81,0.03 0.359,0 0.72,-0.011 1.07,-0.04 0.35,-0.02 0.7,-0.051 1.039,-0.1 0.451,-0.06 0.891,-0.14 1.321,-0.241 0.429,-0.099 0.85,-0.219 1.26,-0.359 0.41,-0.141 0.81,-0.3 1.2,-0.49 0.29,-0.13 0.57,-0.281 0.85,-0.44 0.28,-0.15 0.56,-0.32 0.82,-0.51 0.27,-0.18 0.53,-0.371 0.79,-0.581 0.25,-0.199 0.5,-0.419 0.74,-0.639 0.16,-0.151 0.32,-0.31 0.48,-0.47 C -1.26,8.49 0.02,5.03 0.02,0.74 0.02,0.62 0.02,0.49 0.01,0.37 0.01,0.24 0.01,0.12 0,0 m -3.1,11.81 c -2.69,2.77 -6.15,4.18 -10.28,4.18 -2.06,0 -3.95,-0.341 -5.66,-1.04 -0.53,-0.21 -1.04,-0.45 -1.53,-0.73 -0.48,-0.26 -0.94,-0.56 -1.38,-0.89 -0.62,-0.45 -1.21,-0.96 -1.76,-1.53 -2.6,-2.75 -3.93,-6.47 -3.93,-11.06 0,-4.301 1.35,-7.9 4.01,-10.72 2.72,-2.791 6.17,-4.2 10.25,-4.2 4.109,0 7.57,1.409 10.29,4.21 0.41,0.43 0.78,0.869 1.12,1.329 0.37,0.481 0.699,0.981 0.99,1.5 0.31,0.521 0.58,1.071 0.81,1.631 0.79,1.89 1.19,3.98 1.19,6.25 0,4.54 -1.39,8.27 -4.12,11.07"
           style="fill:#050301;fill-opacity:1;fill-rule:nonzero;stroke:none"
           id="path891" />
      </g>
      <g
         id="g901"
         transform="matrix(0.35277777,0,0,-0.35277777,123.92222,123.03095)">
        <path
           d="m 0,0 -27.5,25.71 -0.5,0.47 -0.51,0.469 -1.15,1.08 -1.68,1.571 V 0.18 h -9.8 v 51.33 l 0.49,-0.45 1.34,-1.23 0.32,-0.29 0.18,-0.17 0.51,-0.471 26.83,-24.679 1.67,-1.55 V 51.31 H 0 Z M -7.96,55.149 -10.8,52.31 V 30.399 l -27.86,25.63 h -0.65 l -2.83,-2.84 V -0.82 h 11.8 l 0.02,0.019 2.82,2.821 V 24.34 L 0.35,-1.701 H 1 L 3.84,1.14 v 54.009 z"
           style="fill:#050301;fill-opacity:1;fill-rule:nonzero;stroke:none"
           id="path903" />
      </g>
    </g>
  </g>
</svg>
